# xmcd
#
# Track frame offsets:
#	150
#	15101
#	29255
#	47053
#	67244
#	89714
#	103550
#	121483
#	141073
#	155955
#	177269
#	197106
#	217094
#	234183
#
# Disc length: 3319 seconds
#
# Revision: 1
# Processed by: cddbd v1.5PL3 Copyright (c) Steve Scherf et al.
# Submitted via: audiograbber 1.82.01
#
DISCID=c70cf50e
DTITLE=More Ot Lubov - More Ot Lubov
DYEAR=2004
DGENRE=Pop
TTITLE0=D2,KariZma&Grafa - Can't Take My Eyes off of You
TTITLE1=Vasko Vasilev - Voodoo Violin
TTITLE2=Ahat - You are nothing but a Dream
TTITLE3=Antibiotika - Ima kak
TTITLE4=P.I.F. - Prikazka
TTITLE5=Ludmila Slanewa - Malkite Chudesa
TTITLE6=Mastilo - Pamukovite Oblaci
TTITLE7=SAFO - Pustinna Zemq
TTITLE8=Joana and Petar Antonov - Rouge
TTITLE9=Avenue - Propileni Dni
TTITLE10=Transformation - Trip
TTITLE11=BTR - More Ot Lubov
TTITLE12=Analgin - Tq Beshe Angel
TTITLE13=D2,KariZma&Grafa - Can't Take My Eyes off of You (Instrumental)
EXTD=
EXTT0=
EXTT1=
EXTT2=
EXTT3=
EXTT4=
EXTT5=
EXTT6=
EXTT7=
EXTT8=
EXTT9=
EXTT10=
EXTT11=
EXTT12=
EXTT13=
PLAYORDER=
